<svg width="900" height="640" viewBox="0 0 900 640" fill="none" xmlns="http://www.w3.org/2000/svg">
  <rect width="900" height="640" rx="42" fill="#F7FFF9"/>
  <rect x="52" y="58" width="796" height="524" rx="34" fill="url(#bg)"/>
  <circle cx="177" cy="164" r="74" fill="#E9FFF1"/>
  <circle cx="764" cy="146" r="82" fill="#EDFDF3"/>
  <path d="M172 222C245 163 311 158 368 213C428 269 500 276 566 224" stroke="#CFF7DA" stroke-width="12" stroke-linecap="round"/>
  <path d="M649 498C693 413 754 384 822 394" stroke="#D8FBE4" stroke-width="10" stroke-linecap="round"/>
  <path d="M545 105C583 77 651 86 683 126" stroke="#CFF7DA" stroke-width="8" stroke-linecap="round"/>
  <path d="M226 469C262 421 318 369 408 388" stroke="#D8FBE4" stroke-width="10" stroke-linecap="round"/>
  <g filter="url(#shadow)">
    <path d="M292 263C292 217.772 328.772 181 374 181H543C588.228 181 625 217.772 625 263V348H292V263Z" fill="#15803D"/>
    <path d="M347 188C347 148.235 379.235 116 419 116H499C538.765 116 571 148.235 571 188V252H347V188Z" fill="#2E8B57"/>
    <path d="M322 347H632C659.614 347 682 369.386 682 397V421C682 464.078 648.078 498 605 498H349C305.922 498 272 464.078 272 421V397C272 369.386 294.386 347 322 347Z" fill="#16A34A"/>
    <path d="M334 352H620C647.614 352 670 374.386 670 402V416C670 444.614 647.614 467 620 467H334C306.386 467 284 444.614 284 416V402C284 374.386 306.386 352 334 352Z" fill="#22C55E"/>
    <path d="M352 301C352 277.804 370.804 259 394 259H565C588.196 259 607 277.804 607 301V343H352V301Z" fill="#14532D"/>
  </g>
  <g>
    <rect x="375" y="230" width="68" height="112" rx="14" fill="#F59E0B"/>
    <rect x="395" y="206" width="28" height="40" rx="10" fill="#FACC15"/>
    <circle cx="409" cy="282" r="17" fill="#FEF08A"/>
  </g>
  <g>
    <path d="M480 218C502 179 551 200 556 246C563 302 509 326 482 303C452 278 458 255 480 218Z" fill="#F97316"/>
    <path d="M494 232C505 205 536 206 548 229C560 253 551 279 530 288C505 299 482 272 494 232Z" fill="#FB923C"/>
  </g>
  <g>
    <ellipse cx="617" cy="336" rx="36" ry="29" fill="#A7F3D0"/>
    <circle cx="617" cy="336" r="18" fill="#ECFDF5"/>
  </g>
  <g>
    <rect x="220" y="392" width="98" height="72" rx="16" fill="#F8FAFC"/>
    <rect x="236" y="410" width="20" height="38" rx="8" fill="#22C55E"/>
    <rect x="264" y="398" width="20" height="50" rx="8" fill="#F59E0B"/>
    <rect x="292" y="418" width="12" height="30" rx="6" fill="#A7F3D0"/>
  </g>
  <g>
    <rect x="679" y="242" width="94" height="126" rx="20" fill="#FFFFFF"/>
    <rect x="697" y="270" width="58" height="58" rx="12" fill="#D6FBE0"/>
    <path d="M709 284C719 262 745 262 755 284" stroke="#16A34A" stroke-width="6" stroke-linecap="round"/>
  </g>
  <g>
    <rect x="124" y="356" width="90" height="46" rx="12" fill="#FFF7ED"/>
    <rect x="139" y="371" width="58" height="16" rx="8" fill="#FB923C"/>
    <path d="M164 357C176 341 194 338 205 351" stroke="#F59E0B" stroke-width="5" stroke-linecap="round"/>
  </g>
  <g>
    <circle cx="693" cy="178" r="22" fill="#D1FAE5"/>
    <path d="M693 144C704 160 713 170 727 182" stroke="#16A34A" stroke-width="6" stroke-linecap="round"/>
    <path d="M690 161C676 176 668 185 659 202" stroke="#22C55E" stroke-width="6" stroke-linecap="round"/>
  </g>
  <g>
    <path d="M529 123C548 97 578 87 601 102" stroke="#B7F5C8" stroke-width="8" stroke-linecap="round"/>
    <path d="M530 123C511 118 493 134 488 148" stroke="#CFF7DA" stroke-width="8" stroke-linecap="round"/>
  </g>
  <defs>
    <linearGradient id="bg" x1="144" y1="76" x2="766" y2="548" gradientUnits="userSpaceOnUse">
      <stop stop-color="#FFFFFF"/>
      <stop offset="1" stop-color="#ECFDF5"/>
    </linearGradient>
    <filter id="shadow" x="248" y="100" width="444" height="410" filterUnits="userSpaceOnUse" color-interpolation-filters="sRGB">
      <feFlood flood-opacity="0" result="BackgroundImageFix"/>
      <feColorMatrix in="SourceAlpha" type="matrix" values="0 0 0 0 0 0 0 0 0 0 0 0 0 0 0 0 0 0 127 0" result="hardAlpha"/>
      <feOffset dy="12"/>
      <feGaussianBlur stdDeviation="12"/>
      <feColorMatrix type="matrix" values="0 0 0 0 0.0705882 0 0 0 0 0.129412 0 0 0 0 0.0980392 0 0 0 0.15 0"/>
      <feBlend mode="normal" in2="BackgroundImageFix" result="effect1_dropShadow_1_2"/>
      <feBlend mode="normal" in="SourceGraphic" in2="effect1_dropShadow_1_2" result="shape"/>
    </filter>
  </defs>
</svg>
